<mxfile host="app.diagrams.net" modified="2024-04-13T16:23:22.444Z" agent="Mozilla/5.0 (X11; Ubuntu; Linux x86_64; rv:123.0) Gecko/20100101 Firefox/123.0" version="24.2.5" etag="hYtklrayGwpzg41BsKcN" type="github">
  <diagram name="Page-1" id="GGJacxq0vt4pdAd75Cs5">
    <mxGraphModel>
      <root>
        <mxCell id="0" />
        <mxCell id="1" parent="0" />
      </root>
    </mxGraphModel>
  </diagram>
</mxfile>
